<svg width="1205" height="605" viewBox="0 0 1205 605" fill="none" xmlns="http://www.w3.org/2000/svg">
<path d="M153.5 3L153.5 601" stroke="#BFBFBF" stroke-width="5" stroke-linecap="round"/>
<path d="M154 602L1202 602" stroke="#BFBFBF" stroke-width="5" stroke-linecap="round"/>
<path d="M1202 328L164 328" stroke="#E8E8E8" stroke-width="3" stroke-linecap="round"/>
<path d="M1202 90L164 90" stroke="#E8E8E8" stroke-width="3" stroke-linecap="round"/>
<path d="M1202 566L164 566" stroke="#E8E8E8" stroke-width="3" stroke-linecap="round"/>
<path d="M164 90L144 90" stroke="#FFCB65" stroke-width="3" stroke-linecap="round"/>
<path d="M164 566L144 566" stroke="#FFCB65" stroke-width="3" stroke-linecap="round"/>
<path d="M164 328L144 328" stroke="#FFCB65" stroke-width="3" stroke-linecap="round"/>
<path d="M178 477.5C192 472.5 214.431 468.178 242 432.5C301.5 355.5 326.409 288.249 351.5 181.5C379 64.5 538.307 -60.58 611 188.5C645 305 788.567 363.54 833.5 398C966.5 500 1061.5 598 1108 258.5" stroke="#A2D3FF" stroke-width="12" stroke-linecap="round"/>
<path d="M53.28 559.06V573H51.46V566.68H44.36V573H42.54V559.06H44.36V565.18H51.46V559.06H53.28ZM57.4077 567.48C57.4077 566.36 57.6343 565.38 58.0877 564.54C58.541 563.687 59.161 563.027 59.9477 562.56C60.7477 562.093 61.6343 561.86 62.6077 561.86C63.5677 561.86 64.401 562.067 65.1077 562.48C65.8143 562.893 66.341 563.413 66.6877 564.04V562.04H68.5277V573H66.6877V570.96C66.3277 571.6 65.7877 572.133 65.0677 572.56C64.361 572.973 63.5343 573.18 62.5877 573.18C61.6143 573.18 60.7343 572.94 59.9477 572.46C59.161 571.98 58.541 571.307 58.0877 570.44C57.6343 569.573 57.4077 568.587 57.4077 567.48ZM66.6877 567.5C66.6877 566.673 66.521 565.953 66.1877 565.34C65.8543 564.727 65.401 564.26 64.8277 563.94C64.2677 563.607 63.6477 563.44 62.9677 563.44C62.2877 563.44 61.6677 563.6 61.1077 563.92C60.5477 564.24 60.101 564.707 59.7677 565.32C59.4343 565.933 59.2677 566.653 59.2677 567.48C59.2677 568.32 59.4343 569.053 59.7677 569.68C60.101 570.293 60.5477 570.767 61.1077 571.1C61.6677 571.42 62.2877 571.58 62.9677 571.58C63.6477 571.58 64.2677 571.42 64.8277 571.1C65.401 570.767 65.8543 570.293 66.1877 569.68C66.521 569.053 66.6877 568.327 66.6877 567.5ZM75.1233 563.82C75.4433 563.193 75.8966 562.707 76.4833 562.36C77.0833 562.013 77.8099 561.84 78.6633 561.84V563.72H78.1833C76.1433 563.72 75.1233 564.827 75.1233 567.04V573H73.3033V562.04H75.1233V563.82ZM86.5442 571.32L89.9442 562.04H91.8842L87.5842 573H85.4642L81.1642 562.04H83.1242L86.5442 571.32ZM94.6952 567.48C94.6952 566.36 94.9218 565.38 95.3752 564.54C95.8285 563.687 96.4485 563.027 97.2352 562.56C98.0352 562.093 98.9218 561.86 99.8952 561.86C100.855 561.86 101.688 562.067 102.395 562.48C103.102 562.893 103.628 563.413 103.975 564.04V562.04H105.815V573H103.975V570.96C103.615 571.6 103.075 572.133 102.355 572.56C101.648 572.973 100.822 573.18 99.8752 573.18C98.9018 573.18 98.0218 572.94 97.2352 572.46C96.4485 571.98 95.8285 571.307 95.3752 570.44C94.9218 569.573 94.6952 568.587 94.6952 567.48ZM103.975 567.5C103.975 566.673 103.808 565.953 103.475 565.34C103.142 564.727 102.688 564.26 102.115 563.94C101.555 563.607 100.935 563.44 100.255 563.44C99.5752 563.44 98.9552 563.6 98.3952 563.92C97.8352 564.24 97.3885 564.707 97.0552 565.32C96.7218 565.933 96.5552 566.653 96.5552 567.48C96.5552 568.32 96.7218 569.053 97.0552 569.68C97.3885 570.293 97.8352 570.767 98.3952 571.1C98.9552 571.42 99.5752 571.58 100.255 571.58C100.935 571.58 101.555 571.42 102.115 571.1C102.688 570.767 103.142 570.293 103.475 569.68C103.808 569.053 103.975 568.327 103.975 567.5Z" fill="black"/>
<path d="M13.06 321.06L7.8 335H5.7L0.44 321.06H2.38L6.76 333.08L11.14 321.06H13.06ZM16.0756 329.48C16.0756 328.36 16.3023 327.38 16.7556 326.54C17.209 325.687 17.829 325.027 18.6156 324.56C19.4156 324.093 20.3023 323.86 21.2756 323.86C22.2356 323.86 23.069 324.067 23.7756 324.48C24.4823 324.893 25.009 325.413 25.3556 326.04V324.04H27.1956V335H25.3556V332.96C24.9956 333.6 24.4556 334.133 23.7356 334.56C23.029 334.973 22.2023 335.18 21.2556 335.18C20.2823 335.18 19.4023 334.94 18.6156 334.46C17.829 333.98 17.209 333.307 16.7556 332.44C16.3023 331.573 16.0756 330.587 16.0756 329.48ZM25.3556 329.5C25.3556 328.673 25.189 327.953 24.8556 327.34C24.5223 326.727 24.069 326.26 23.4956 325.94C22.9356 325.607 22.3156 325.44 21.6356 325.44C20.9556 325.44 20.3356 325.6 19.7756 325.92C19.2156 326.24 18.769 326.707 18.4356 327.32C18.1023 327.933 17.9356 328.653 17.9356 329.48C17.9356 330.32 18.1023 331.053 18.4356 331.68C18.769 332.293 19.2156 332.767 19.7756 333.1C20.3356 333.42 20.9556 333.58 21.6356 333.58C22.3156 333.58 22.9356 333.42 23.4956 333.1C24.069 332.767 24.5223 332.293 24.8556 331.68C25.189 331.053 25.3556 330.327 25.3556 329.5ZM37.4112 323.84C38.2379 323.84 38.9846 324.02 39.6513 324.38C40.3179 324.727 40.8379 325.253 41.2113 325.96C41.5979 326.667 41.7912 327.527 41.7912 328.54V335H39.9912V328.8C39.9912 327.707 39.7179 326.873 39.1712 326.3C38.6246 325.713 37.8779 325.42 36.9312 325.42C35.9713 325.42 35.2046 325.72 34.6312 326.32C34.0712 326.92 33.7912 327.793 33.7912 328.94V335H31.9712V320.2H33.7912V325.6C34.1512 325.04 34.6446 324.607 35.2712 324.3C35.9112 323.993 36.6246 323.84 37.4112 323.84ZM56.4642 329.1C56.4642 329.447 56.4442 329.813 56.4042 330.2H47.6442C47.7109 331.28 48.0776 332.127 48.7442 332.74C49.4242 333.34 50.2442 333.64 51.2042 333.64C51.9909 333.64 52.6442 333.46 53.1642 333.1C53.6976 332.727 54.0709 332.233 54.2842 331.62H56.2442C55.9509 332.673 55.3642 333.533 54.4842 334.2C53.6042 334.853 52.5109 335.18 51.2042 335.18C50.1642 335.18 49.2309 334.947 48.4042 334.48C47.5909 334.013 46.9509 333.353 46.4842 332.5C46.0176 331.633 45.7842 330.633 45.7842 329.5C45.7842 328.367 46.0109 327.373 46.4642 326.52C46.9176 325.667 47.5509 325.013 48.3642 324.56C49.1909 324.093 50.1376 323.86 51.2042 323.86C52.2442 323.86 53.1642 324.087 53.9642 324.54C54.7642 324.993 55.3776 325.62 55.8042 326.42C56.2442 327.207 56.4642 328.1 56.4642 329.1ZM54.5842 328.72C54.5842 328.027 54.4309 327.433 54.1242 326.94C53.8176 326.433 53.3976 326.053 52.8642 325.8C52.3442 325.533 51.7642 325.4 51.1242 325.4C50.2042 325.4 49.4176 325.693 48.7642 326.28C48.1242 326.867 47.7576 327.68 47.6642 328.72H54.5842ZM62.3866 326.06C62.7466 325.433 63.2799 324.913 63.9866 324.5C64.7066 324.073 65.5399 323.86 66.4866 323.86C67.4599 323.86 68.3399 324.093 69.1266 324.56C69.9266 325.027 70.5532 325.687 71.0066 326.54C71.4599 327.38 71.6866 328.36 71.6866 329.48C71.6866 330.587 71.4599 331.573 71.0066 332.44C70.5532 333.307 69.9266 333.98 69.1266 334.46C68.3399 334.94 67.4599 335.18 66.4866 335.18C65.5532 335.18 64.7266 334.973 64.0066 334.56C63.2999 334.133 62.7599 333.607 62.3866 332.98V340.2H60.5666V324.04H62.3866V326.06ZM69.8266 329.48C69.8266 328.653 69.6599 327.933 69.3266 327.32C68.9932 326.707 68.5399 326.24 67.9666 325.92C67.4066 325.6 66.7866 325.44 66.1066 325.44C65.4399 325.44 64.8199 325.607 64.2466 325.94C63.6866 326.26 63.2332 326.733 62.8866 327.36C62.5532 327.973 62.3866 328.687 62.3866 329.5C62.3866 330.327 62.5532 331.053 62.8866 331.68C63.2332 332.293 63.6866 332.767 64.2466 333.1C64.8199 333.42 65.4399 333.58 66.1066 333.58C66.7866 333.58 67.4066 333.42 67.9666 333.1C68.5399 332.767 68.9932 332.293 69.3266 331.68C69.6599 331.053 69.8266 330.32 69.8266 329.48ZM85.7822 329.1C85.7822 329.447 85.7622 329.813 85.7222 330.2H76.9622C77.0289 331.28 77.3955 332.127 78.0622 332.74C78.7422 333.34 79.5622 333.64 80.5222 333.64C81.3089 333.64 81.9622 333.46 82.4822 333.1C83.0155 332.727 83.3889 332.233 83.6022 331.62H85.5622C85.2689 332.673 84.6822 333.533 83.8022 334.2C82.9222 334.853 81.8289 335.18 80.5222 335.18C79.4822 335.18 78.5489 334.947 77.7222 334.48C76.9089 334.013 76.2689 333.353 75.8022 332.5C75.3355 331.633 75.1022 330.633 75.1022 329.5C75.1022 328.367 75.3289 327.373 75.7822 326.52C76.2355 325.667 76.8689 325.013 77.6822 324.56C78.5089 324.093 79.4555 323.86 80.5222 323.86C81.5622 323.86 82.4822 324.087 83.2822 324.54C84.0822 324.993 84.6955 325.62 85.1222 326.42C85.5622 327.207 85.7822 328.1 85.7822 329.1ZM83.9022 328.72C83.9022 328.027 83.7489 327.433 83.4422 326.94C83.1355 326.433 82.7155 326.053 82.1822 325.8C81.6622 325.533 81.0822 325.4 80.4422 325.4C79.5222 325.4 78.7355 325.693 78.0822 326.28C77.4422 326.867 77.0755 327.68 76.9822 328.72H83.9022ZM89.2045 329.48C89.2045 328.36 89.4312 327.38 89.8845 326.54C90.3379 325.687 90.9579 325.027 91.7445 324.56C92.5445 324.093 93.4312 323.86 94.4045 323.86C95.3645 323.86 96.1979 324.067 96.9045 324.48C97.6112 324.893 98.1379 325.413 98.4845 326.04V324.04H100.325V335H98.4845V332.96C98.1245 333.6 97.5845 334.133 96.8645 334.56C96.1579 334.973 95.3312 335.18 94.3845 335.18C93.4112 335.18 92.5312 334.94 91.7445 334.46C90.9579 333.98 90.3379 333.307 89.8845 332.44C89.4312 331.573 89.2045 330.587 89.2045 329.48ZM98.4845 329.5C98.4845 328.673 98.3179 327.953 97.9845 327.34C97.6512 326.727 97.1979 326.26 96.6245 325.94C96.0645 325.607 95.4445 325.44 94.7645 325.44C94.0845 325.44 93.4645 325.6 92.9045 325.92C92.3445 326.24 91.8979 326.707 91.5645 327.32C91.2312 327.933 91.0645 328.653 91.0645 329.48C91.0645 330.32 91.2312 331.053 91.5645 331.68C91.8979 332.293 92.3445 332.767 92.9045 333.1C93.4645 333.42 94.0845 333.58 94.7645 333.58C95.4445 333.58 96.0645 333.42 96.6245 333.1C97.1979 332.767 97.6512 332.293 97.9845 331.68C98.3179 331.053 98.4845 330.327 98.4845 329.5ZM106.92 320.2V335H105.1V320.2H106.92Z" fill="black"/>
<path d="M70.12 83.06V84.54H66.32V97H64.5V84.54H60.68V83.06H70.12ZM75.0003 84.26C74.6536 84.26 74.3603 84.14 74.1203 83.9C73.8803 83.66 73.7603 83.3667 73.7603 83.02C73.7603 82.6733 73.8803 82.38 74.1203 82.14C74.3603 81.9 74.6536 81.78 75.0003 81.78C75.3336 81.78 75.6136 81.9 75.8403 82.14C76.0803 82.38 76.2003 82.6733 76.2003 83.02C76.2003 83.3667 76.0803 83.66 75.8403 83.9C75.6136 84.14 75.3336 84.26 75.0003 84.26ZM75.8803 86.04V97H74.0603V86.04H75.8803ZM86.1222 85.84C86.9489 85.84 87.6955 86.02 88.3622 86.38C89.0289 86.7267 89.5489 87.2533 89.9222 87.96C90.3089 88.6667 90.5022 89.5267 90.5022 90.54V97H88.7022V90.8C88.7022 89.7067 88.4289 88.8733 87.8822 88.3C87.3355 87.7133 86.5889 87.42 85.6422 87.42C84.6822 87.42 83.9155 87.72 83.3422 88.32C82.7822 88.92 82.5022 89.7933 82.5022 90.94V97H80.6822V82.2H82.5022V87.6C82.8622 87.04 83.3555 86.6067 83.9822 86.3C84.6222 85.9933 85.3355 85.84 86.1222 85.84ZM97.3952 87.54V94C97.3952 94.5333 97.5085 94.9133 97.7352 95.14C97.9618 95.3533 98.3552 95.46 98.9152 95.46H100.255V97H98.6152C97.6018 97 96.8418 96.7667 96.3352 96.3C95.8285 95.8333 95.5752 95.0667 95.5752 94V87.54H94.1552V86.04H95.5752V83.28H97.3952V86.04H100.255V87.54H97.3952ZM105.1 84.26C104.754 84.26 104.46 84.14 104.22 83.9C103.98 83.66 103.86 83.3667 103.86 83.02C103.86 82.6733 103.98 82.38 104.22 82.14C104.46 81.9 104.754 81.78 105.1 81.78C105.434 81.78 105.714 81.9 105.94 82.14C106.18 82.38 106.3 82.6733 106.3 83.02C106.3 83.3667 106.18 83.66 105.94 83.9C105.714 84.14 105.434 84.26 105.1 84.26ZM105.98 86.04V97H104.16V86.04H105.98Z" fill="black"/>
<circle cx="359" cy="161" r="20" fill="#FFCB65"/>
<circle cx="230" cy="447" r="20" fill="#FFCB65"/>
<circle cx="487" cy="45" r="20" fill="#FFCB65"/>
<circle cx="620" cy="216" r="20" fill="#FFCB65"/>
<circle cx="755" cy="350" r="20" fill="#FFCB65"/>
<circle cx="877" cy="429" r="20" fill="#FFCB65"/>
<circle cx="999" cy="492" r="20" fill="#FFCB65"/>
<circle cx="1102" cy="296" r="20" fill="#FFCB65"/>
<path d="M466.536 39.848V41.032H461.688V44.792H465.624V45.976H461.688V51H460.232V39.848H466.536ZM470.406 40.808C470.129 40.808 469.894 40.712 469.702 40.52C469.51 40.328 469.414 40.0933 469.414 39.816C469.414 39.5387 469.51 39.304 469.702 39.112C469.894 38.92 470.129 38.824 470.406 38.824C470.673 38.824 470.897 38.92 471.078 39.112C471.27 39.304 471.366 39.5387 471.366 39.816C471.366 40.0933 471.27 40.328 471.078 40.52C470.897 40.712 470.673 40.808 470.406 40.808ZM471.11 42.232V51H469.654V42.232H471.11ZM478.568 42.088C479.325 42.088 479.987 42.2533 480.552 42.584C481.128 42.9147 481.555 43.3307 481.832 43.832V42.232H483.304V51.192C483.304 51.992 483.133 52.7013 482.792 53.32C482.451 53.9493 481.96 54.44 481.32 54.792C480.691 55.144 479.955 55.32 479.112 55.32C477.96 55.32 477 55.048 476.232 54.504C475.464 53.96 475.011 53.2187 474.872 52.28H476.312C476.472 52.8133 476.803 53.24 477.304 53.56C477.805 53.8907 478.408 54.056 479.112 54.056C479.912 54.056 480.563 53.8053 481.064 53.304C481.576 52.8027 481.832 52.0987 481.832 51.192V49.352C481.544 49.864 481.117 50.2907 480.552 50.632C479.987 50.9733 479.325 51.144 478.568 51.144C477.789 51.144 477.08 50.952 476.44 50.568C475.811 50.184 475.315 49.6453 474.952 48.952C474.589 48.2587 474.408 47.4693 474.408 46.584C474.408 45.688 474.589 44.904 474.952 44.232C475.315 43.5493 475.811 43.0213 476.44 42.648C477.08 42.2747 477.789 42.088 478.568 42.088ZM481.832 46.6C481.832 45.9387 481.699 45.3627 481.432 44.872C481.165 44.3813 480.803 44.008 480.344 43.752C479.896 43.4853 479.4 43.352 478.856 43.352C478.312 43.352 477.816 43.48 477.368 43.736C476.92 43.992 476.563 44.3653 476.296 44.856C476.029 45.3467 475.896 45.9227 475.896 46.584C475.896 47.256 476.029 47.8427 476.296 48.344C476.563 48.8347 476.92 49.2133 477.368 49.48C477.816 49.736 478.312 49.864 478.856 49.864C479.4 49.864 479.896 49.736 480.344 49.48C480.803 49.2133 481.165 48.8347 481.432 48.344C481.699 47.8427 481.832 47.2613 481.832 46.6ZM497.669 42.072C498.351 42.072 498.959 42.216 499.493 42.504C500.026 42.7813 500.447 43.2027 500.757 43.768C501.066 44.3333 501.221 45.0213 501.221 45.832V51H499.781V46.04C499.781 45.1653 499.562 44.4987 499.125 44.04C498.698 43.5707 498.117 43.336 497.381 43.336C496.623 43.336 496.021 43.5813 495.573 44.072C495.125 44.552 494.901 45.2507 494.901 46.168V51H493.461V46.04C493.461 45.1653 493.242 44.4987 492.805 44.04C492.378 43.5707 491.797 43.336 491.061 43.336C490.303 43.336 489.701 43.5813 489.253 44.072C488.805 44.552 488.581 45.2507 488.581 46.168V51H487.125V42.232H488.581V43.496C488.869 43.0373 489.253 42.6853 489.733 42.44C490.223 42.1947 490.762 42.072 491.349 42.072C492.085 42.072 492.735 42.2373 493.301 42.568C493.866 42.8987 494.287 43.384 494.565 44.024C494.81 43.4053 495.215 42.9253 495.781 42.584C496.346 42.2427 496.975 42.072 497.669 42.072ZM504.425 46.584C504.425 45.688 504.606 44.904 504.969 44.232C505.332 43.5493 505.828 43.0213 506.457 42.648C507.097 42.2747 507.806 42.088 508.585 42.088C509.353 42.088 510.02 42.2533 510.585 42.584C511.15 42.9147 511.572 43.3307 511.849 43.832V42.232H513.321V51H511.849V49.368C511.561 49.88 511.129 50.3067 510.553 50.648C509.988 50.9787 509.326 51.144 508.569 51.144C507.79 51.144 507.086 50.952 506.457 50.568C505.828 50.184 505.332 49.6453 504.969 48.952C504.606 48.2587 504.425 47.4693 504.425 46.584ZM511.849 46.6C511.849 45.9387 511.716 45.3627 511.449 44.872C511.182 44.3813 510.82 44.008 510.361 43.752C509.913 43.4853 509.417 43.352 508.873 43.352C508.329 43.352 507.833 43.48 507.385 43.736C506.937 43.992 506.58 44.3653 506.313 44.856C506.046 45.3467 505.913 45.9227 505.913 46.584C505.913 47.256 506.046 47.8427 506.313 48.344C506.58 48.8347 506.937 49.2133 507.385 49.48C507.833 49.736 508.329 49.864 508.873 49.864C509.417 49.864 509.913 49.736 510.361 49.48C510.82 49.2133 511.182 48.8347 511.449 48.344C511.716 47.8427 511.849 47.2613 511.849 46.6Z" fill="black"/>
<path d="M316.688 155.848V167H315.232V155.848H316.688ZM321.986 155.16V167H320.53V155.16H321.986ZM327.283 155.16V167H325.827V155.16H327.283ZM338.901 158.232V167H337.445V165.704C337.167 166.152 336.778 166.504 336.277 166.76C335.786 167.005 335.242 167.128 334.645 167.128C333.962 167.128 333.349 166.989 332.805 166.712C332.261 166.424 331.829 165.997 331.508 165.432C331.199 164.867 331.044 164.179 331.044 163.368V158.232H332.484V163.176C332.484 164.04 332.703 164.707 333.141 165.176C333.578 165.635 334.175 165.864 334.933 165.864C335.711 165.864 336.325 165.624 336.773 165.144C337.221 164.664 337.445 163.965 337.445 163.048V158.232H338.901ZM345.823 167.144C345.151 167.144 344.548 167.032 344.015 166.808C343.482 166.573 343.06 166.253 342.751 165.848C342.442 165.432 342.271 164.957 342.239 164.424H343.743C343.786 164.861 343.988 165.219 344.351 165.496C344.724 165.773 345.21 165.912 345.807 165.912C346.362 165.912 346.799 165.789 347.119 165.544C347.439 165.299 347.599 164.989 347.599 164.616C347.599 164.232 347.428 163.949 347.087 163.768C346.746 163.576 346.218 163.389 345.503 163.208C344.852 163.037 344.319 162.867 343.903 162.696C343.498 162.515 343.146 162.253 342.847 161.912C342.559 161.56 342.415 161.101 342.415 160.536C342.415 160.088 342.548 159.677 342.815 159.304C343.082 158.931 343.46 158.637 343.951 158.424C344.442 158.2 345.002 158.088 345.631 158.088C346.602 158.088 347.386 158.333 347.983 158.824C348.58 159.315 348.9 159.987 348.943 160.84H347.487C347.455 160.381 347.268 160.013 346.927 159.736C346.596 159.459 346.148 159.32 345.583 159.32C345.06 159.32 344.644 159.432 344.335 159.656C344.026 159.88 343.871 160.173 343.871 160.536C343.871 160.824 343.962 161.064 344.143 161.256C344.335 161.437 344.57 161.587 344.847 161.704C345.135 161.811 345.53 161.933 346.031 162.072C346.66 162.243 347.172 162.413 347.567 162.584C347.962 162.744 348.298 162.989 348.575 163.32C348.863 163.651 349.012 164.083 349.023 164.616C349.023 165.096 348.89 165.528 348.623 165.912C348.356 166.296 347.978 166.6 347.487 166.824C347.007 167.037 346.452 167.144 345.823 167.144ZM354.214 159.432V164.6C354.214 165.027 354.305 165.331 354.486 165.512C354.668 165.683 354.982 165.768 355.43 165.768H356.502V167H355.19C354.38 167 353.772 166.813 353.366 166.44C352.961 166.067 352.758 165.453 352.758 164.6V159.432H351.622V158.232H352.758V156.024H354.214V158.232H356.502V159.432H354.214ZM361.082 159.656C361.338 159.155 361.701 158.765 362.17 158.488C362.65 158.211 363.232 158.072 363.914 158.072V159.576H363.53C361.898 159.576 361.082 160.461 361.082 162.232V167H359.626V158.232H361.082V159.656ZM366.411 162.584C366.411 161.688 366.592 160.904 366.955 160.232C367.318 159.549 367.814 159.021 368.443 158.648C369.083 158.275 369.792 158.088 370.571 158.088C371.339 158.088 372.006 158.253 372.571 158.584C373.136 158.915 373.558 159.331 373.835 159.832V158.232H375.307V167H373.835V165.368C373.547 165.88 373.115 166.307 372.539 166.648C371.974 166.979 371.312 167.144 370.555 167.144C369.776 167.144 369.072 166.952 368.443 166.568C367.814 166.184 367.318 165.645 366.955 164.952C366.592 164.259 366.411 163.469 366.411 162.584ZM373.835 162.6C373.835 161.939 373.702 161.363 373.435 160.872C373.168 160.381 372.806 160.008 372.347 159.752C371.899 159.485 371.403 159.352 370.859 159.352C370.315 159.352 369.819 159.48 369.371 159.736C368.923 159.992 368.566 160.365 368.299 160.856C368.032 161.347 367.899 161.923 367.899 162.584C367.899 163.256 368.032 163.843 368.299 164.344C368.566 164.835 368.923 165.213 369.371 165.48C369.819 165.736 370.315 165.864 370.859 165.864C371.403 165.864 371.899 165.736 372.347 165.48C372.806 165.213 373.168 164.835 373.435 164.344C373.702 163.843 373.835 163.261 373.835 162.6ZM380.904 159.432V164.6C380.904 165.027 380.994 165.331 381.176 165.512C381.357 165.683 381.672 165.768 382.12 165.768H383.192V167H381.88C381.069 167 380.461 166.813 380.056 166.44C379.65 166.067 379.448 165.453 379.448 164.6V159.432H378.312V158.232H379.448V156.024H380.904V158.232H383.192V159.432H380.904ZM390.14 167.144C389.318 167.144 388.572 166.957 387.9 166.584C387.238 166.211 386.716 165.683 386.332 165C385.958 164.307 385.772 163.507 385.772 162.6C385.772 161.704 385.964 160.915 386.348 160.232C386.742 159.539 387.276 159.011 387.948 158.648C388.62 158.275 389.372 158.088 390.204 158.088C391.036 158.088 391.788 158.275 392.46 158.648C393.132 159.011 393.66 159.533 394.044 160.216C394.438 160.899 394.636 161.693 394.636 162.6C394.636 163.507 394.433 164.307 394.028 165C393.633 165.683 393.094 166.211 392.412 166.584C391.729 166.957 390.972 167.144 390.14 167.144ZM390.14 165.864C390.662 165.864 391.153 165.741 391.612 165.496C392.07 165.251 392.438 164.883 392.716 164.392C393.004 163.901 393.148 163.304 393.148 162.6C393.148 161.896 393.009 161.299 392.732 160.808C392.454 160.317 392.092 159.955 391.644 159.72C391.196 159.475 390.71 159.352 390.188 159.352C389.654 159.352 389.164 159.475 388.716 159.72C388.278 159.955 387.926 160.317 387.66 160.808C387.393 161.299 387.26 161.896 387.26 162.6C387.26 163.315 387.388 163.917 387.644 164.408C387.91 164.899 388.262 165.267 388.7 165.512C389.137 165.747 389.617 165.864 390.14 165.864ZM399.366 159.656C399.622 159.155 399.985 158.765 400.454 158.488C400.934 158.211 401.515 158.072 402.198 158.072V159.576H401.814C400.182 159.576 399.366 160.461 399.366 162.232V167H397.91V158.232H399.366V159.656Z" fill="black"/>
<path d="M579.688 214.112C579.688 215.04 579.368 215.813 578.728 216.432C578.099 217.04 577.133 217.344 575.832 217.344H573.688V222H572.232V210.848H575.832C577.091 210.848 578.045 211.152 578.696 211.76C579.357 212.368 579.688 213.152 579.688 214.112ZM575.832 216.144C576.643 216.144 577.24 215.968 577.624 215.616C578.008 215.264 578.2 214.763 578.2 214.112C578.2 212.736 577.411 212.048 575.832 212.048H573.688V216.144H575.832ZM587.21 213.072C587.871 213.072 588.468 213.216 589.002 213.504C589.535 213.781 589.951 214.203 590.25 214.768C590.559 215.333 590.714 216.021 590.714 216.832V222H589.274V217.04C589.274 216.165 589.055 215.499 588.618 215.04C588.18 214.571 587.583 214.336 586.826 214.336C586.058 214.336 585.444 214.576 584.986 215.056C584.538 215.536 584.314 216.235 584.314 217.152V222H582.858V210.16H584.314V214.48C584.602 214.032 584.996 213.685 585.498 213.44C586.01 213.195 586.58 213.072 587.21 213.072ZM598.276 222.144C597.455 222.144 596.708 221.957 596.036 221.584C595.375 221.211 594.852 220.683 594.468 220C594.095 219.307 593.908 218.507 593.908 217.6C593.908 216.704 594.1 215.915 594.484 215.232C594.879 214.539 595.412 214.011 596.084 213.648C596.756 213.275 597.508 213.088 598.34 213.088C599.172 213.088 599.924 213.275 600.596 213.648C601.268 214.011 601.796 214.533 602.18 215.216C602.575 215.899 602.772 216.693 602.772 217.6C602.772 218.507 602.569 219.307 602.164 220C601.769 220.683 601.231 221.211 600.548 221.584C599.865 221.957 599.108 222.144 598.276 222.144ZM598.276 220.864C598.799 220.864 599.289 220.741 599.748 220.496C600.207 220.251 600.575 219.883 600.852 219.392C601.14 218.901 601.284 218.304 601.284 217.6C601.284 216.896 601.145 216.299 600.868 215.808C600.591 215.317 600.228 214.955 599.78 214.72C599.332 214.475 598.847 214.352 598.324 214.352C597.791 214.352 597.3 214.475 596.852 214.72C596.415 214.955 596.063 215.317 595.796 215.808C595.529 216.299 595.396 216.896 595.396 217.6C595.396 218.315 595.524 218.917 595.78 219.408C596.047 219.899 596.399 220.267 596.836 220.512C597.273 220.747 597.753 220.864 598.276 220.864ZM607.822 214.432V219.6C607.822 220.027 607.913 220.331 608.094 220.512C608.276 220.683 608.59 220.768 609.038 220.768H610.11V222H608.798C607.988 222 607.38 221.813 606.974 221.44C606.569 221.067 606.366 220.453 606.366 219.6V214.432H605.23V213.232H606.366V211.024H607.822V213.232H610.11V214.432H607.822ZM617.058 222.144C616.237 222.144 615.49 221.957 614.818 221.584C614.157 221.211 613.634 220.683 613.25 220C612.877 219.307 612.69 218.507 612.69 217.6C612.69 216.704 612.882 215.915 613.266 215.232C613.661 214.539 614.194 214.011 614.866 213.648C615.538 213.275 616.29 213.088 617.122 213.088C617.954 213.088 618.706 213.275 619.378 213.648C620.05 214.011 620.578 214.533 620.962 215.216C621.357 215.899 621.554 216.693 621.554 217.6C621.554 218.507 621.352 219.307 620.946 220C620.552 220.683 620.013 221.211 619.33 221.584C618.648 221.957 617.89 222.144 617.058 222.144ZM617.058 220.864C617.581 220.864 618.072 220.741 618.53 220.496C618.989 220.251 619.357 219.883 619.634 219.392C619.922 218.901 620.066 218.304 620.066 217.6C620.066 216.896 619.928 216.299 619.65 215.808C619.373 215.317 619.01 214.955 618.562 214.72C618.114 214.475 617.629 214.352 617.106 214.352C616.573 214.352 616.082 214.475 615.634 214.72C615.197 214.955 614.845 215.317 614.578 215.808C614.312 216.299 614.178 216.896 614.178 217.6C614.178 218.315 614.306 218.917 614.562 219.408C614.829 219.899 615.181 220.267 615.618 220.512C616.056 220.747 616.536 220.864 617.058 220.864ZM627.933 222.144C627.261 222.144 626.658 222.032 626.125 221.808C625.592 221.573 625.17 221.253 624.861 220.848C624.552 220.432 624.381 219.957 624.349 219.424H625.853C625.896 219.861 626.098 220.219 626.461 220.496C626.834 220.773 627.32 220.912 627.917 220.912C628.472 220.912 628.909 220.789 629.229 220.544C629.549 220.299 629.709 219.989 629.709 219.616C629.709 219.232 629.538 218.949 629.197 218.768C628.856 218.576 628.328 218.389 627.613 218.208C626.962 218.037 626.429 217.867 626.013 217.696C625.608 217.515 625.256 217.253 624.957 216.912C624.669 216.56 624.525 216.101 624.525 215.536C624.525 215.088 624.658 214.677 624.925 214.304C625.192 213.931 625.57 213.637 626.061 213.424C626.552 213.2 627.112 213.088 627.741 213.088C628.712 213.088 629.496 213.333 630.093 213.824C630.69 214.315 631.01 214.987 631.053 215.84H629.597C629.565 215.381 629.378 215.013 629.037 214.736C628.706 214.459 628.258 214.32 627.693 214.32C627.17 214.32 626.754 214.432 626.445 214.656C626.136 214.88 625.981 215.173 625.981 215.536C625.981 215.824 626.072 216.064 626.253 216.256C626.445 216.437 626.68 216.587 626.957 216.704C627.245 216.811 627.64 216.933 628.141 217.072C628.77 217.243 629.282 217.413 629.677 217.584C630.072 217.744 630.408 217.989 630.685 218.32C630.973 218.651 631.122 219.083 631.133 219.616C631.133 220.096 631 220.528 630.733 220.912C630.466 221.296 630.088 221.6 629.597 221.824C629.117 222.037 628.562 222.144 627.933 222.144ZM638.9 213.072C639.562 213.072 640.159 213.216 640.692 213.504C641.226 213.781 641.642 214.203 641.94 214.768C642.25 215.333 642.404 216.021 642.404 216.832V222H640.964V217.04C640.964 216.165 640.746 215.499 640.308 215.04C639.871 214.571 639.274 214.336 638.516 214.336C637.748 214.336 637.135 214.576 636.676 215.056C636.228 215.536 636.004 216.235 636.004 217.152V222H634.548V210.16H636.004V214.48C636.292 214.032 636.687 213.685 637.188 213.44C637.7 213.195 638.271 213.072 638.9 213.072ZM649.967 222.144C649.145 222.144 648.399 221.957 647.727 221.584C647.065 221.211 646.543 220.683 646.159 220C645.785 219.307 645.599 218.507 645.599 217.6C645.599 216.704 645.791 215.915 646.175 215.232C646.569 214.539 647.103 214.011 647.775 213.648C648.447 213.275 649.199 213.088 650.031 213.088C650.863 213.088 651.615 213.275 652.287 213.648C652.959 214.011 653.487 214.533 653.871 215.216C654.265 215.899 654.463 216.693 654.463 217.6C654.463 218.507 654.26 219.307 653.855 220C653.46 220.683 652.921 221.211 652.239 221.584C651.556 221.957 650.799 222.144 649.967 222.144ZM649.967 220.864C650.489 220.864 650.98 220.741 651.439 220.496C651.897 220.251 652.265 219.883 652.543 219.392C652.831 218.901 652.975 218.304 652.975 217.6C652.975 216.896 652.836 216.299 652.559 215.808C652.281 215.317 651.919 214.955 651.471 214.72C651.023 214.475 650.537 214.352 650.015 214.352C649.481 214.352 648.991 214.475 648.543 214.72C648.105 214.955 647.753 215.317 647.487 215.808C647.22 216.299 647.087 216.896 647.087 217.6C647.087 218.315 647.215 218.917 647.471 219.408C647.737 219.899 648.089 220.267 648.527 220.512C648.964 220.747 649.444 220.864 649.967 220.864ZM659.193 214.848C659.481 214.347 659.908 213.931 660.473 213.6C661.049 213.259 661.716 213.088 662.473 213.088C663.252 213.088 663.956 213.275 664.585 213.648C665.225 214.021 665.726 214.549 666.089 215.232C666.452 215.904 666.633 216.688 666.633 217.584C666.633 218.469 666.452 219.259 666.089 219.952C665.726 220.645 665.225 221.184 664.585 221.568C663.956 221.952 663.252 222.144 662.473 222.144C661.726 222.144 661.065 221.979 660.489 221.648C659.924 221.307 659.492 220.885 659.193 220.384V226.16H657.737V213.232H659.193V214.848ZM665.145 217.584C665.145 216.923 665.012 216.347 664.745 215.856C664.478 215.365 664.116 214.992 663.657 214.736C663.209 214.48 662.713 214.352 662.169 214.352C661.636 214.352 661.14 214.485 660.681 214.752C660.233 215.008 659.87 215.387 659.593 215.888C659.326 216.379 659.193 216.949 659.193 217.6C659.193 218.261 659.326 218.843 659.593 219.344C659.87 219.835 660.233 220.213 660.681 220.48C661.14 220.736 661.636 220.864 662.169 220.864C662.713 220.864 663.209 220.736 663.657 220.48C664.116 220.213 664.478 219.835 664.745 219.344C665.012 218.843 665.145 218.256 665.145 217.584Z" fill="black"/>
<path d="M706.867 353.52H702.003L701.107 356H699.571L703.603 344.912H705.283L709.299 356H707.763L706.867 353.52ZM706.451 352.336L704.435 346.704L702.419 352.336H706.451ZM715.984 348.432H714.144V356H712.688V348.432H711.552V347.232H712.688V346.608C712.688 345.627 712.939 344.912 713.44 344.464C713.952 344.005 714.768 343.776 715.888 343.776V344.992C715.248 344.992 714.795 345.12 714.528 345.376C714.272 345.621 714.144 346.032 714.144 346.608V347.232H715.984V348.432ZM720.818 348.432V353.6C720.818 354.027 720.909 354.331 721.09 354.512C721.271 354.683 721.586 354.768 722.034 354.768H723.106V356H721.794C720.983 356 720.375 355.813 719.97 355.44C719.565 355.067 719.362 354.453 719.362 353.6V348.432H718.226V347.232H719.362V345.024H720.818V347.232H723.106V348.432H720.818ZM734.23 351.28C734.23 351.557 734.214 351.851 734.182 352.16H727.174C727.227 353.024 727.521 353.701 728.054 354.192C728.598 354.672 729.254 354.912 730.022 354.912C730.651 354.912 731.174 354.768 731.59 354.48C732.017 354.181 732.315 353.787 732.486 353.296H734.054C733.819 354.139 733.35 354.827 732.646 355.36C731.942 355.883 731.067 356.144 730.022 356.144C729.19 356.144 728.443 355.957 727.782 355.584C727.131 355.211 726.619 354.683 726.246 354C725.873 353.307 725.686 352.507 725.686 351.6C725.686 350.693 725.867 349.899 726.23 349.216C726.593 348.533 727.099 348.011 727.75 347.648C728.411 347.275 729.169 347.088 730.022 347.088C730.854 347.088 731.59 347.269 732.23 347.632C732.87 347.995 733.361 348.496 733.702 349.136C734.054 349.765 734.23 350.48 734.23 351.28ZM732.726 350.976C732.726 350.421 732.603 349.947 732.358 349.552C732.113 349.147 731.777 348.843 731.35 348.64C730.934 348.427 730.47 348.32 729.958 348.32C729.222 348.32 728.593 348.555 728.07 349.024C727.558 349.493 727.265 350.144 727.19 350.976H732.726ZM738.968 348.656C739.224 348.155 739.587 347.765 740.056 347.488C740.536 347.211 741.117 347.072 741.8 347.072V348.576H741.416C739.784 348.576 738.968 349.461 738.968 351.232V356H737.512V347.232H738.968V348.656ZM751.922 346.032V349.76H755.986V350.96H751.922V354.8H756.466V356H750.466V344.832H756.466V346.032H751.922ZM763.598 348.432H761.758V356H760.302V348.432H759.166V347.232H760.302V346.608C760.302 345.627 760.552 344.912 761.054 344.464C761.566 344.005 762.382 343.776 763.502 343.776V344.992C762.862 344.992 762.408 345.12 762.142 345.376C761.886 345.621 761.758 346.032 761.758 346.608V347.232H763.598V348.432ZM770.223 348.432H768.383V356H766.927V348.432H765.791V347.232H766.927V346.608C766.927 345.627 767.178 344.912 767.679 344.464C768.191 344.005 769.007 343.776 770.127 343.776V344.992C769.487 344.992 769.034 345.12 768.767 345.376C768.511 345.621 768.383 346.032 768.383 346.608V347.232H770.223V348.432ZM781.281 351.28C781.281 351.557 781.265 351.851 781.233 352.16H774.225C774.278 353.024 774.571 353.701 775.105 354.192C775.649 354.672 776.305 354.912 777.073 354.912C777.702 354.912 778.225 354.768 778.641 354.48C779.067 354.181 779.366 353.787 779.537 353.296H781.105C780.87 354.139 780.401 354.827 779.697 355.36C778.993 355.883 778.118 356.144 777.073 356.144C776.241 356.144 775.494 355.957 774.833 355.584C774.182 355.211 773.67 354.683 773.297 354C772.923 353.307 772.737 352.507 772.737 351.6C772.737 350.693 772.918 349.899 773.281 349.216C773.643 348.533 774.15 348.011 774.801 347.648C775.462 347.275 776.219 347.088 777.073 347.088C777.905 347.088 778.641 347.269 779.281 347.632C779.921 347.995 780.411 348.496 780.753 349.136C781.105 349.765 781.281 350.48 781.281 351.28ZM779.777 350.976C779.777 350.421 779.654 349.947 779.409 349.552C779.163 349.147 778.827 348.843 778.401 348.64C777.985 348.427 777.521 348.32 777.009 348.32C776.273 348.32 775.643 348.555 775.121 349.024C774.609 349.493 774.315 350.144 774.241 350.976H779.777ZM784.019 351.6C784.019 350.693 784.2 349.904 784.563 349.232C784.925 348.549 785.427 348.021 786.067 347.648C786.717 347.275 787.459 347.088 788.291 347.088C789.368 347.088 790.253 347.349 790.947 347.872C791.651 348.395 792.115 349.12 792.339 350.048H790.771C790.621 349.515 790.328 349.093 789.891 348.784C789.464 348.475 788.931 348.32 788.291 348.32C787.459 348.32 786.787 348.608 786.275 349.184C785.763 349.749 785.507 350.555 785.507 351.6C785.507 352.656 785.763 353.472 786.275 354.048C786.787 354.624 787.459 354.912 788.291 354.912C788.931 354.912 789.464 354.763 789.891 354.464C790.317 354.165 790.611 353.739 790.771 353.184H792.339C792.104 354.08 791.635 354.8 790.931 355.344C790.227 355.877 789.347 356.144 788.291 356.144C787.459 356.144 786.717 355.957 786.067 355.584C785.427 355.211 784.925 354.683 784.563 354C784.2 353.317 784.019 352.517 784.019 351.6ZM797.417 348.432V353.6C797.417 354.027 797.508 354.331 797.689 354.512C797.871 354.683 798.185 354.768 798.633 354.768H799.705V356H798.393C797.583 356 796.975 355.813 796.569 355.44C796.164 355.067 795.961 354.453 795.961 353.6V348.432H794.825V347.232H795.961V345.024H797.417V347.232H799.705V348.432H797.417ZM805.934 356.144C805.262 356.144 804.659 356.032 804.126 355.808C803.592 355.573 803.171 355.253 802.862 354.848C802.552 354.432 802.382 353.957 802.35 353.424H803.854C803.896 353.861 804.099 354.219 804.462 354.496C804.835 354.773 805.32 354.912 805.918 354.912C806.472 354.912 806.91 354.789 807.23 354.544C807.55 354.299 807.71 353.989 807.71 353.616C807.71 353.232 807.539 352.949 807.198 352.768C806.856 352.576 806.328 352.389 805.614 352.208C804.963 352.037 804.43 351.867 804.014 351.696C803.608 351.515 803.256 351.253 802.958 350.912C802.67 350.56 802.526 350.101 802.526 349.536C802.526 349.088 802.659 348.677 802.926 348.304C803.192 347.931 803.571 347.637 804.062 347.424C804.552 347.2 805.112 347.088 805.742 347.088C806.712 347.088 807.496 347.333 808.094 347.824C808.691 348.315 809.011 348.987 809.054 349.84H807.598C807.566 349.381 807.379 349.013 807.038 348.736C806.707 348.459 806.259 348.32 805.694 348.32C805.171 348.32 804.755 348.432 804.446 348.656C804.136 348.88 803.982 349.173 803.982 349.536C803.982 349.824 804.072 350.064 804.254 350.256C804.446 350.437 804.68 350.587 804.958 350.704C805.246 350.811 805.64 350.933 806.142 351.072C806.771 351.243 807.283 351.413 807.678 351.584C808.072 351.744 808.408 351.989 808.686 352.32C808.974 352.651 809.123 353.083 809.134 353.616C809.134 354.096 809 354.528 808.734 354.912C808.467 355.296 808.088 355.6 807.598 355.824C807.118 356.037 806.563 356.144 805.934 356.144Z" fill="black"/>
<path d="M206.768 453.112C206.032 453.112 205.371 452.984 204.784 452.728C204.208 452.461 203.755 452.099 203.424 451.64C203.093 451.171 202.923 450.632 202.912 450.024H204.464C204.517 450.547 204.731 450.989 205.104 451.352C205.488 451.704 206.043 451.88 206.768 451.88C207.461 451.88 208.005 451.709 208.4 451.368C208.805 451.016 209.008 450.568 209.008 450.024C209.008 449.597 208.891 449.251 208.656 448.984C208.421 448.717 208.128 448.515 207.776 448.376C207.424 448.237 206.949 448.088 206.352 447.928C205.616 447.736 205.024 447.544 204.576 447.352C204.139 447.16 203.76 446.861 203.44 446.456C203.131 446.04 202.976 445.485 202.976 444.792C202.976 444.184 203.131 443.645 203.44 443.176C203.749 442.707 204.181 442.344 204.736 442.088C205.301 441.832 205.947 441.704 206.672 441.704C207.717 441.704 208.571 441.965 209.232 442.488C209.904 443.011 210.283 443.704 210.368 444.568H208.768C208.715 444.141 208.491 443.768 208.096 443.448C207.701 443.117 207.179 442.952 206.528 442.952C205.92 442.952 205.424 443.112 205.04 443.432C204.656 443.741 204.464 444.179 204.464 444.744C204.464 445.149 204.576 445.48 204.8 445.736C205.035 445.992 205.317 446.189 205.648 446.328C205.989 446.456 206.464 446.605 207.072 446.776C207.808 446.979 208.4 447.181 208.848 447.384C209.296 447.576 209.68 447.88 210 448.296C210.32 448.701 210.48 449.256 210.48 449.96C210.48 450.504 210.336 451.016 210.048 451.496C209.76 451.976 209.333 452.365 208.768 452.664C208.203 452.963 207.536 453.112 206.768 453.112ZM215.439 445.848C215.727 445.347 216.153 444.931 216.719 444.6C217.295 444.259 217.961 444.088 218.719 444.088C219.497 444.088 220.201 444.275 220.831 444.648C221.471 445.021 221.972 445.549 222.335 446.232C222.697 446.904 222.879 447.688 222.879 448.584C222.879 449.469 222.697 450.259 222.335 450.952C221.972 451.645 221.471 452.184 220.831 452.568C220.201 452.952 219.497 453.144 218.719 453.144C217.972 453.144 217.311 452.979 216.735 452.648C216.169 452.307 215.737 451.885 215.439 451.384V457.16H213.983V444.232H215.439V445.848ZM221.391 448.584C221.391 447.923 221.257 447.347 220.991 446.856C220.724 446.365 220.361 445.992 219.903 445.736C219.455 445.48 218.959 445.352 218.415 445.352C217.881 445.352 217.385 445.485 216.927 445.752C216.479 446.008 216.116 446.387 215.839 446.888C215.572 447.379 215.439 447.949 215.439 448.6C215.439 449.261 215.572 449.843 215.839 450.344C216.116 450.835 216.479 451.213 216.927 451.48C217.385 451.736 217.881 451.864 218.415 451.864C218.959 451.864 219.455 451.736 219.903 451.48C220.361 451.213 220.724 450.835 220.991 450.344C221.257 449.843 221.391 449.256 221.391 448.584ZM227.611 441.16V453H226.155V441.16H227.611ZM232.205 442.808C231.927 442.808 231.693 442.712 231.501 442.52C231.309 442.328 231.213 442.093 231.213 441.816C231.213 441.539 231.309 441.304 231.501 441.112C231.693 440.92 231.927 440.824 232.205 440.824C232.471 440.824 232.695 440.92 232.877 441.112C233.069 441.304 233.165 441.539 233.165 441.816C233.165 442.093 233.069 442.328 232.877 442.52C232.695 442.712 232.471 442.808 232.205 442.808ZM232.909 444.232V453H231.453V444.232H232.909ZM241.022 444.072C242.089 444.072 242.953 444.397 243.614 445.048C244.275 445.688 244.606 446.616 244.606 447.832V453H243.166V448.04C243.166 447.165 242.947 446.499 242.51 446.04C242.073 445.571 241.475 445.336 240.718 445.336C239.95 445.336 239.337 445.576 238.878 446.056C238.43 446.536 238.206 447.235 238.206 448.152V453H236.75V444.232H238.206V445.48C238.494 445.032 238.883 444.685 239.374 444.44C239.875 444.195 240.425 444.072 241.022 444.072ZM256.344 448.28C256.344 448.557 256.328 448.851 256.296 449.16H249.288C249.342 450.024 249.635 450.701 250.168 451.192C250.712 451.672 251.368 451.912 252.136 451.912C252.766 451.912 253.288 451.768 253.704 451.48C254.131 451.181 254.43 450.787 254.6 450.296H256.168C255.934 451.139 255.464 451.827 254.76 452.36C254.056 452.883 253.182 453.144 252.136 453.144C251.304 453.144 250.558 452.957 249.896 452.584C249.246 452.211 248.734 451.683 248.36 451C247.987 450.307 247.8 449.507 247.8 448.6C247.8 447.693 247.982 446.899 248.344 446.216C248.707 445.533 249.214 445.011 249.864 444.648C250.526 444.275 251.283 444.088 252.136 444.088C252.968 444.088 253.704 444.269 254.344 444.632C254.984 444.995 255.475 445.496 255.816 446.136C256.168 446.765 256.344 447.48 256.344 448.28ZM254.84 447.976C254.84 447.421 254.718 446.947 254.472 446.552C254.227 446.147 253.891 445.843 253.464 445.64C253.048 445.427 252.584 445.32 252.072 445.32C251.336 445.32 250.707 445.555 250.184 446.024C249.672 446.493 249.379 447.144 249.304 447.976H254.84Z" fill="black"/>
<path d="M1091.85 290.848V299.088C1091.85 300.005 1091.57 300.741 1091 301.296C1090.43 301.84 1089.69 302.112 1088.76 302.112C1087.82 302.112 1087.07 301.835 1086.5 301.28C1085.94 300.715 1085.66 299.947 1085.66 298.976H1087.11C1087.12 299.52 1087.26 299.963 1087.53 300.304C1087.81 300.645 1088.22 300.816 1088.76 300.816C1089.3 300.816 1089.71 300.656 1089.98 300.336C1090.24 300.005 1090.38 299.589 1090.38 299.088V290.848H1091.85ZM1096.83 291.808C1096.55 291.808 1096.32 291.712 1096.12 291.52C1095.93 291.328 1095.84 291.093 1095.84 290.816C1095.84 290.539 1095.93 290.304 1096.12 290.112C1096.32 289.92 1096.55 289.824 1096.83 289.824C1097.1 289.824 1097.32 289.92 1097.5 290.112C1097.69 290.304 1097.79 290.539 1097.79 290.816C1097.79 291.093 1097.69 291.328 1097.5 291.52C1097.32 291.712 1097.1 291.808 1096.83 291.808ZM1097.53 293.232V302H1096.08V293.232H1097.53ZM1102.83 294.656C1103.09 294.155 1103.45 293.765 1103.92 293.488C1104.4 293.211 1104.98 293.072 1105.66 293.072V294.576H1105.28C1103.65 294.576 1102.83 295.461 1102.83 297.232V302H1101.37V293.232H1102.83V294.656ZM1108.16 297.584C1108.16 296.688 1108.34 295.904 1108.7 295.232C1109.07 294.549 1109.56 294.021 1110.19 293.648C1110.83 293.275 1111.54 293.088 1112.32 293.088C1113.09 293.088 1113.75 293.253 1114.32 293.584C1114.88 293.915 1115.31 294.331 1115.58 294.832V293.232H1117.05V302H1115.58V300.368C1115.29 300.88 1114.86 301.307 1114.29 301.648C1113.72 301.979 1113.06 302.144 1112.3 302.144C1111.52 302.144 1110.82 301.952 1110.19 301.568C1109.56 301.184 1109.07 300.645 1108.7 299.952C1108.34 299.259 1108.16 298.469 1108.16 297.584ZM1115.58 297.6C1115.58 296.939 1115.45 296.363 1115.18 295.872C1114.92 295.381 1114.55 295.008 1114.09 294.752C1113.65 294.485 1113.15 294.352 1112.61 294.352C1112.06 294.352 1111.57 294.48 1111.12 294.736C1110.67 294.992 1110.31 295.365 1110.05 295.856C1109.78 296.347 1109.65 296.923 1109.65 297.584C1109.65 298.256 1109.78 298.843 1110.05 299.344C1110.31 299.835 1110.67 300.213 1111.12 300.48C1111.57 300.736 1112.06 300.864 1112.61 300.864C1113.15 300.864 1113.65 300.736 1114.09 300.48C1114.55 300.213 1114.92 299.835 1115.18 299.344C1115.45 298.843 1115.58 298.261 1115.58 297.6Z" fill="black"/>
<path d="M851.448 423.848L847.24 435H845.56L841.352 423.848H842.904L846.408 433.464L849.912 423.848H851.448ZM857.94 435.112C857.204 435.112 856.543 434.984 855.956 434.728C855.38 434.461 854.927 434.099 854.596 433.64C854.266 433.171 854.095 432.632 854.084 432.024H855.636C855.69 432.547 855.903 432.989 856.276 433.352C856.66 433.704 857.215 433.88 857.94 433.88C858.634 433.88 859.178 433.709 859.572 433.368C859.978 433.016 860.181 432.568 860.181 432.024C860.181 431.597 860.063 431.251 859.828 430.984C859.594 430.717 859.301 430.515 858.949 430.376C858.596 430.237 858.122 430.088 857.524 429.928C856.788 429.736 856.196 429.544 855.748 429.352C855.311 429.16 854.932 428.861 854.612 428.456C854.303 428.04 854.148 427.485 854.148 426.792C854.148 426.184 854.303 425.645 854.612 425.176C854.922 424.707 855.354 424.344 855.908 424.088C856.474 423.832 857.119 423.704 857.845 423.704C858.89 423.704 859.743 423.965 860.405 424.488C861.077 425.011 861.455 425.704 861.54 426.568H859.94C859.887 426.141 859.663 425.768 859.268 425.448C858.874 425.117 858.351 424.952 857.701 424.952C857.092 424.952 856.596 425.112 856.212 425.432C855.828 425.741 855.636 426.179 855.636 426.744C855.636 427.149 855.748 427.48 855.972 427.736C856.207 427.992 856.49 428.189 856.82 428.328C857.162 428.456 857.636 428.605 858.244 428.776C858.98 428.979 859.572 429.181 860.021 429.384C860.469 429.576 860.852 429.88 861.172 430.296C861.492 430.701 861.653 431.256 861.653 431.96C861.653 432.504 861.509 433.016 861.22 433.496C860.932 433.976 860.506 434.365 859.94 434.664C859.375 434.963 858.708 435.112 857.94 435.112ZM864.611 429.416C864.611 428.328 864.856 427.352 865.347 426.488C865.838 425.613 866.504 424.931 867.347 424.44C868.2 423.949 869.144 423.704 870.179 423.704C871.395 423.704 872.456 423.997 873.363 424.584C874.27 425.171 874.931 426.003 875.347 427.08H873.603C873.294 426.408 872.846 425.891 872.259 425.528C871.683 425.165 870.99 424.984 870.179 424.984C869.4 424.984 868.702 425.165 868.083 425.528C867.464 425.891 866.979 426.408 866.627 427.08C866.275 427.741 866.099 428.52 866.099 429.416C866.099 430.301 866.275 431.08 866.627 431.752C866.979 432.413 867.464 432.925 868.083 433.288C868.702 433.651 869.4 433.832 870.179 433.832C870.99 433.832 871.683 433.656 872.259 433.304C872.846 432.941 873.294 432.424 873.603 431.752H875.347C874.931 432.819 874.27 433.645 873.363 434.232C872.456 434.808 871.395 435.096 870.179 435.096C869.144 435.096 868.2 434.856 867.347 434.376C866.504 433.885 865.838 433.208 865.347 432.344C864.856 431.48 864.611 430.504 864.611 429.416ZM882.699 435.144C881.877 435.144 881.131 434.957 880.459 434.584C879.797 434.211 879.275 433.683 878.891 433C878.517 432.307 878.331 431.507 878.331 430.6C878.331 429.704 878.523 428.915 878.907 428.232C879.301 427.539 879.835 427.011 880.507 426.648C881.179 426.275 881.931 426.088 882.763 426.088C883.595 426.088 884.347 426.275 885.019 426.648C885.691 427.011 886.219 427.533 886.603 428.216C886.997 428.899 887.195 429.693 887.195 430.6C887.195 431.507 886.992 432.307 886.587 433C886.192 433.683 885.653 434.211 884.971 434.584C884.288 434.957 883.531 435.144 882.699 435.144ZM882.699 433.864C883.221 433.864 883.712 433.741 884.171 433.496C884.629 433.251 884.997 432.883 885.275 432.392C885.563 431.901 885.707 431.304 885.707 430.6C885.707 429.896 885.568 429.299 885.291 428.808C885.013 428.317 884.651 427.955 884.203 427.72C883.755 427.475 883.269 427.352 882.747 427.352C882.213 427.352 881.723 427.475 881.275 427.72C880.837 427.955 880.485 428.317 880.219 428.808C879.952 429.299 879.819 429.896 879.819 430.6C879.819 431.315 879.947 431.917 880.203 432.408C880.469 432.899 880.821 433.267 881.259 433.512C881.696 433.747 882.176 433.864 882.699 433.864ZM889.925 430.584C889.925 429.688 890.106 428.904 890.469 428.232C890.832 427.549 891.328 427.021 891.957 426.648C892.597 426.275 893.312 426.088 894.101 426.088C894.784 426.088 895.418 426.248 896.005 426.568C896.592 426.877 897.04 427.288 897.349 427.8V423.16H898.821V435H897.349V433.352C897.061 433.875 896.634 434.307 896.069 434.648C895.504 434.979 894.842 435.144 894.085 435.144C893.306 435.144 892.597 434.952 891.957 434.568C891.328 434.184 890.832 433.645 890.469 432.952C890.106 432.259 889.925 431.469 889.925 430.584ZM897.349 430.6C897.349 429.939 897.216 429.363 896.949 428.872C896.682 428.381 896.32 428.008 895.861 427.752C895.413 427.485 894.917 427.352 894.373 427.352C893.829 427.352 893.333 427.48 892.885 427.736C892.437 427.992 892.08 428.365 891.813 428.856C891.546 429.347 891.413 429.923 891.413 430.584C891.413 431.256 891.546 431.843 891.813 432.344C892.08 432.835 892.437 433.213 892.885 433.48C893.333 433.736 893.829 433.864 894.373 433.864C894.917 433.864 895.413 433.736 895.861 433.48C896.32 433.213 896.682 432.835 896.949 432.344C897.216 431.843 897.349 431.261 897.349 430.6ZM910.641 430.28C910.641 430.557 910.625 430.851 910.593 431.16H903.585C903.639 432.024 903.932 432.701 904.465 433.192C905.009 433.672 905.665 433.912 906.433 433.912C907.063 433.912 907.585 433.768 908.001 433.48C908.428 433.181 908.727 432.787 908.897 432.296H910.465C910.231 433.139 909.761 433.827 909.057 434.36C908.353 434.883 907.479 435.144 906.433 435.144C905.601 435.144 904.855 434.957 904.193 434.584C903.543 434.211 903.031 433.683 902.657 433C902.284 432.307 902.097 431.507 902.097 430.6C902.097 429.693 902.279 428.899 902.641 428.216C903.004 427.533 903.511 427.011 904.161 426.648C904.823 426.275 905.58 426.088 906.433 426.088C907.265 426.088 908.001 426.269 908.641 426.632C909.281 426.995 909.772 427.496 910.113 428.136C910.465 428.765 910.641 429.48 910.641 430.28ZM909.137 429.976C909.137 429.421 909.015 428.947 908.769 428.552C908.524 428.147 908.188 427.843 907.761 427.64C907.345 427.427 906.881 427.32 906.369 427.32C905.633 427.32 905.004 427.555 904.481 428.024C903.969 428.493 903.676 429.144 903.601 429.976H909.137Z" fill="black"/>
<path d="M977.68 490.08C977.371 489.429 976.923 488.928 976.336 488.576C975.749 488.213 975.067 488.032 974.288 488.032C973.509 488.032 972.805 488.213 972.176 488.576C971.557 488.928 971.067 489.44 970.704 490.112C970.352 490.773 970.176 491.541 970.176 492.416C970.176 493.291 970.352 494.059 970.704 494.72C971.067 495.381 971.557 495.893 972.176 496.256C972.805 496.608 973.509 496.784 974.288 496.784C975.376 496.784 976.272 496.459 976.976 495.808C977.68 495.157 978.091 494.277 978.208 493.168H973.76V491.984H979.76V493.104C979.675 494.021 979.387 494.864 978.896 495.632C978.405 496.389 977.76 496.992 976.96 497.44C976.16 497.877 975.269 498.096 974.288 498.096C973.253 498.096 972.309 497.856 971.456 497.376C970.603 496.885 969.925 496.208 969.424 495.344C968.933 494.48 968.688 493.504 968.688 492.416C968.688 491.328 968.933 490.352 969.424 489.488C969.925 488.613 970.603 487.936 971.456 487.456C972.309 486.965 973.253 486.72 974.288 486.72C975.472 486.72 976.517 487.013 977.424 487.6C978.341 488.187 979.008 489.013 979.424 490.08H977.68ZM983.797 487.808C983.52 487.808 983.285 487.712 983.093 487.52C982.901 487.328 982.805 487.093 982.805 486.816C982.805 486.539 982.901 486.304 983.093 486.112C983.285 485.92 983.52 485.824 983.797 485.824C984.064 485.824 984.288 485.92 984.469 486.112C984.661 486.304 984.757 486.539 984.757 486.816C984.757 487.093 984.661 487.328 984.469 487.52C984.288 487.712 984.064 487.808 983.797 487.808ZM984.501 489.232V498H983.045V489.232H984.501ZM990.119 490.432V495.6C990.119 496.027 990.209 496.331 990.391 496.512C990.572 496.683 990.887 496.768 991.335 496.768H992.407V498H991.095C990.284 498 989.676 497.813 989.271 497.44C988.865 497.067 988.663 496.453 988.663 495.6V490.432H987.527V489.232H988.663V487.024H990.119V489.232H992.407V490.432H990.119ZM999.883 489.072C1000.54 489.072 1001.14 489.216 1001.67 489.504C1002.21 489.781 1002.62 490.203 1002.92 490.768C1003.23 491.333 1003.39 492.021 1003.39 492.832V498H1001.95V493.04C1001.95 492.165 1001.73 491.499 1001.29 491.04C1000.85 490.571 1000.26 490.336 999.499 490.336C998.731 490.336 998.117 490.576 997.659 491.056C997.211 491.536 996.987 492.235 996.987 493.152V498H995.531V486.16H996.987V490.48C997.275 490.032 997.669 489.685 998.171 489.44C998.683 489.195 999.253 489.072 999.883 489.072ZM1014.9 489.232V498H1013.45V496.704C1013.17 497.152 1012.78 497.504 1012.28 497.76C1011.79 498.005 1011.24 498.128 1010.65 498.128C1009.96 498.128 1009.35 497.989 1008.81 497.712C1008.26 497.424 1007.83 496.997 1007.51 496.432C1007.2 495.867 1007.05 495.179 1007.05 494.368V489.232H1008.49V494.176C1008.49 495.04 1008.7 495.707 1009.14 496.176C1009.58 496.635 1010.18 496.864 1010.93 496.864C1011.71 496.864 1012.33 496.624 1012.77 496.144C1013.22 495.664 1013.45 494.965 1013.45 494.048V489.232H1014.9ZM1020.18 490.864C1020.47 490.341 1020.91 489.915 1021.49 489.584C1022.06 489.253 1022.72 489.088 1023.46 489.088C1024.24 489.088 1024.95 489.275 1025.58 489.648C1026.21 490.021 1026.71 490.549 1027.07 491.232C1027.43 491.904 1027.62 492.688 1027.62 493.584C1027.62 494.469 1027.43 495.259 1027.07 495.952C1026.71 496.645 1026.21 497.184 1025.57 497.568C1024.94 497.952 1024.23 498.144 1023.46 498.144C1022.7 498.144 1022.03 497.979 1021.46 497.648C1020.89 497.317 1020.46 496.896 1020.18 496.384V498H1018.72V486.16H1020.18V490.864ZM1026.13 493.584C1026.13 492.923 1025.99 492.347 1025.73 491.856C1025.46 491.365 1025.1 490.992 1024.64 490.736C1024.19 490.48 1023.7 490.352 1023.15 490.352C1022.62 490.352 1022.12 490.485 1021.66 490.752C1021.22 491.008 1020.85 491.387 1020.58 491.888C1020.31 492.379 1020.18 492.949 1020.18 493.6C1020.18 494.261 1020.31 494.843 1020.58 495.344C1020.85 495.835 1021.22 496.213 1021.66 496.48C1022.12 496.736 1022.62 496.864 1023.15 496.864C1023.7 496.864 1024.19 496.736 1024.64 496.48C1025.1 496.213 1025.46 495.835 1025.73 495.344C1025.99 494.843 1026.13 494.256 1026.13 493.584Z" fill="black"/>
</svg>
