<svg width="19" height="15" viewBox="0 0 19 15" fill="none" xmlns="http://www.w3.org/2000/svg">
<path d="M7.56391 14.1857C8.42668 14.9097 9.71296 14.7971 10.4369 13.9344L18.2472 4.62638C18.8807 3.87146 18.8737 2.79228 18.2841 2.0493C18.2262 1.97632 18.1627 1.9066 18.0936 1.84074C18.0622 1.8108 18.0296 1.78166 17.9959 1.75338L16.8555 0.796483C15.9927 0.0725369 14.7065 0.185072 13.9825 1.04784L8.43958 7.65364L4.58634 4.42038C3.72357 3.69644 2.43729 3.80897 1.71334 4.67174L0.756444 5.81213C0.0324985 6.67489 0.145032 7.96118 1.0078 8.68512L5.96989 12.8482L6.69675 13.4581L7.56391 14.1857Z" fill="#535353"/>
</svg>
