<svg width="68" height="63" viewBox="0 0 68 63" fill="none" xmlns="http://www.w3.org/2000/svg">
<path d="M0.886126 60.3L6.49368 2.7C6.56044 1.86 6.82746 1.2 7.29476 0.720001C7.82881 0.24 8.56313 0 9.49772 0H31.3271C32.2617 0 32.9627 0.24 33.43 0.720001C33.8973 1.2 34.1977 1.86 34.3312 2.7L39.8386 60.3C39.9721 61.08 39.7385 61.74 39.1376 62.28C38.5368 62.76 37.7691 63 36.8345 63H26.1201C24.2509 63 23.2496 62.1 23.1161 60.3L22.8157 54.18H17.9091L17.6086 60.3C17.5419 61.14 17.2415 61.8 16.7074 62.28C16.2401 62.76 15.5392 63 14.6046 63H3.89017C2.95558 63 2.18788 62.76 1.58707 62.28C1.05302 61.74 0.81937 61.08 0.886126 60.3ZM22.0146 39.78L20.7128 14.4H20.112L18.7101 39.78H22.0146Z" fill="black"/>
<path fill-rule="evenodd" clip-rule="evenodd" d="M57.3605 34.1062V2.00799C57.3605 1.38328 57.1132 0.892443 56.6186 0.535467C56.1241 0.178491 55.4441 0 54.5786 0H44.6568C43.7914 0 43.1114 0.178491 42.6168 0.535467C42.1223 0.892443 41.875 1.38328 41.875 2.00799V44.845C41.875 45.4697 42.1223 45.9605 42.6168 46.3175C43.1114 46.6745 43.7914 46.8529 44.6568 46.8529H64.5932C65.4587 46.8529 66.1386 46.6745 66.6332 46.3175C67.1277 45.9605 67.375 45.4697 67.375 44.845V36.1142C67.375 35.4895 67.1277 34.9986 66.6332 34.6417C66.1386 34.2847 65.4587 34.1062 64.5932 34.1062H57.3605ZM55.8979 2.00799V35.2917H64.5932C65.2125 35.2917 65.5074 35.4165 65.6605 35.527C65.7913 35.6214 65.9124 35.7667 65.9124 36.1142V44.845C65.9124 45.1925 65.7913 45.3378 65.6605 45.4322C65.5074 45.5427 65.2125 45.6675 64.5932 45.6675H44.6568C44.0375 45.6675 43.7426 45.5427 43.5895 45.4322C43.4588 45.3378 43.3376 45.1925 43.3376 44.845V2.00799C43.3376 1.66049 43.4588 1.51518 43.5895 1.42078C43.7426 1.31026 44.0375 1.18548 44.6568 1.18548H54.5786C55.198 1.18548 55.4928 1.31026 55.6459 1.42078C55.7767 1.51518 55.8979 1.66049 55.8979 2.00799Z" fill="black"/>
<path fill-rule="evenodd" clip-rule="evenodd" d="M41.875 50.8235C41.875 49.3616 43.3387 48.1765 45.1442 48.1765H64.1058C65.9113 48.1765 67.375 49.3616 67.375 50.8235V60.3529C67.375 61.8149 65.9113 63 64.1058 63H45.1442C43.3387 63 41.875 61.8149 41.875 60.3529V50.8235ZM45.1442 49.3619H64.1058C65.105 49.3619 65.9124 50.0175 65.9124 50.8235V60.3529C65.9124 61.159 65.105 61.8145 64.1058 61.8145H45.1442C44.145 61.8145 43.3376 61.159 43.3376 60.3529V50.8235C43.3376 50.0175 44.145 49.3619 45.1442 49.3619Z" fill="black"/>
<path d="M55.8979 35.2917V2.00799C55.8979 1.66049 55.7767 1.51518 55.6459 1.42078C55.4928 1.31026 55.198 1.18548 54.5786 1.18548H44.6568C44.0375 1.18548 43.7426 1.31026 43.5895 1.42078C43.4588 1.51518 43.3376 1.66049 43.3376 2.00799V44.845C43.3376 45.1925 43.4588 45.3378 43.5895 45.4322C43.7426 45.5427 44.0375 45.6675 44.6568 45.6675H64.5932C65.2125 45.6675 65.5074 45.5427 65.6605 45.4322C65.7913 45.3378 65.9124 45.1925 65.9124 44.845V36.1142C65.9124 35.7667 65.7913 35.6214 65.6605 35.527C65.5074 35.4165 65.2125 35.2917 64.5932 35.2917H55.8979Z" fill="black"/>
<path d="M64.1058 49.3619H45.1442C44.145 49.3619 43.3376 50.0175 43.3376 50.8235V60.3529C43.3376 61.159 44.145 61.8145 45.1442 61.8145H64.1058C65.105 61.8145 65.9124 61.159 65.9124 60.3529V50.8235C65.9124 50.0175 65.105 49.3619 64.1058 49.3619Z" fill="black"/>
</svg>
