<svg width="1338" height="280" viewBox="0 0 1338 280" fill="none" xmlns="http://www.w3.org/2000/svg">
<path d="M0.0491985 267.543L24.8451 12.4572C25.1403 8.73715 26.321 5.81432 28.3873 3.6886C30.7489 1.56288 33.9959 0.5 38.1286 0.5H134.655C138.788 0.5 141.888 1.56288 143.954 3.6886C146.02 5.81432 147.349 8.73715 147.939 12.4572L172.292 267.543C172.882 270.997 171.849 273.92 169.193 276.311C166.536 278.437 163.141 279.5 159.009 279.5H111.631C103.365 279.5 98.9376 275.514 98.3472 267.543L97.0188 240.44H75.3224L73.994 267.543C73.6989 271.263 72.3705 274.186 70.009 276.311C67.9426 278.437 64.8432 279.5 60.7105 279.5H13.3327C9.20005 279.5 5.80537 278.437 3.14867 276.311C0.787159 273.92 -0.24599 270.997 0.0491985 267.543ZM93.4765 176.669L87.7203 64.2714H85.0636L78.8646 176.669H93.4765Z" fill="black"/>
<path d="M179.54 200.216V9.44255C179.54 6.66043 180.39 4.47446 182.088 2.88467C183.787 1.29489 186.122 0.5 189.095 0.5H262.03C265.003 0.5 267.338 1.29489 269.037 2.88467C270.735 4.47446 271.585 6.66043 271.585 9.44255V161.465H276.362V9.44255C276.362 6.66043 277.212 4.47446 278.91 2.88467C280.609 1.29489 282.944 0.5 285.917 0.5H319.996C322.968 0.5 325.304 1.29489 327.003 2.88467C328.701 4.47446 329.551 6.66043 329.551 9.44255V200.216C329.551 202.998 328.701 205.184 327.003 206.774C325.304 208.364 322.968 209.159 319.996 209.159H247.061C244.301 209.159 242.071 208.364 240.372 206.774C238.674 205.184 237.718 202.998 237.506 200.216V48.1934H232.729V200.216C232.729 202.998 231.879 205.184 230.181 206.774C228.482 208.364 226.146 209.159 223.174 209.159H189.095C186.122 209.159 183.787 208.364 182.088 206.774C180.39 205.184 179.54 202.998 179.54 200.216Z" fill="black"/>
<path d="M336.638 267.543V12.4572C336.638 8.73715 337.817 5.81432 340.177 3.6886C342.536 1.56288 345.781 0.5 349.91 0.5H445.028C449.157 0.5 452.401 1.56288 454.76 3.6886C457.12 5.81432 458.3 8.73715 458.3 12.4572V52.3142C458.3 56.0342 457.12 58.9571 454.76 61.0828C452.401 63.2085 449.157 64.2714 445.028 64.2714H410.52V112.1H445.028C449.157 112.1 452.401 113.163 454.76 115.289C457.12 117.414 458.3 120.337 458.3 124.057V163.914C458.3 167.634 457.12 170.557 454.76 172.683C452.401 174.808 449.157 175.871 445.028 175.871H410.52V215.728H445.028C449.157 215.728 452.401 216.791 454.76 218.917C457.12 221.043 458.3 223.966 458.3 227.686V267.543C458.3 271.263 457.12 274.186 454.76 276.311C452.401 278.437 449.157 279.5 445.028 279.5H349.91C345.781 279.5 342.536 278.437 340.177 276.311C337.817 274.186 336.638 271.263 336.638 267.543Z" fill="black"/>
<path d="M464.796 52.3142V12.4572C464.796 8.73715 465.974 5.81432 468.329 3.6886C470.685 1.56288 473.924 0.5 478.046 0.5H603.918C608.04 0.5 611.279 1.56288 613.635 3.6886C615.99 5.81432 617.168 8.73715 617.168 12.4572V52.3142C617.168 56.0342 615.99 58.9571 613.635 61.0828C611.279 63.2085 608.04 64.2714 603.918 64.2714H577.86V267.543C577.86 271.263 576.682 274.186 574.327 276.311C571.971 278.437 568.733 279.5 564.61 279.5H517.353C513.231 279.5 509.992 278.437 507.637 276.311C505.281 274.186 504.104 271.263 504.104 267.543V64.2714H478.046C473.924 64.2714 470.685 63.2085 468.329 61.0828C465.974 58.9571 464.796 56.0342 464.796 52.3142Z" fill="black"/>
<path d="M624.846 52.3142V12.4572C624.846 8.73715 626.023 5.81432 628.379 3.6886C630.734 1.56288 633.973 0.5 638.095 0.5H763.969C768.091 0.5 771.33 1.56288 773.685 3.6886C776.041 5.81432 777.218 8.73715 777.218 12.4572V52.3142C777.218 56.0342 776.041 58.9571 773.685 61.0828C771.33 63.2085 768.091 64.2714 763.969 64.2714H737.911V267.543C737.911 271.263 736.733 274.186 734.377 276.311C732.022 278.437 728.783 279.5 724.661 279.5H677.403C673.281 279.5 670.042 278.437 667.687 276.311C665.331 274.186 664.153 271.263 664.153 267.543V64.2714H638.095C633.973 64.2714 630.734 63.2085 628.379 61.0828C626.023 58.9571 624.846 56.0342 624.846 52.3142Z" fill="black"/>
<path d="M783.715 200.216V9.44255C783.715 6.66043 784.568 4.47446 786.275 2.88467C787.982 1.29489 790.328 0.5 793.315 0.5H862.113C865.1 0.5 867.447 1.29489 869.153 2.88467C870.86 4.47446 871.713 6.66043 871.713 9.44255V39.2509C871.713 42.033 870.86 44.219 869.153 45.8088C867.447 47.3985 865.1 48.1934 862.113 48.1934H837.154V83.9635H862.113C865.1 83.9635 867.447 84.7584 869.153 86.3482C870.86 87.938 871.713 90.1239 871.713 92.9061V122.714C871.713 125.497 870.86 127.683 869.153 129.272C867.447 130.862 865.1 131.657 862.113 131.657H837.154V161.465H862.113C865.1 161.465 867.447 162.26 869.153 163.85C870.86 165.44 871.713 167.626 871.713 170.408V200.216C871.713 202.998 870.86 205.184 869.153 206.774C867.447 208.364 865.1 209.159 862.113 209.159H793.315C790.328 209.159 787.982 208.364 786.275 206.774C784.568 205.184 783.715 202.998 783.715 200.216Z" fill="black"/>
<path d="M179.54 227.483C179.54 220.954 184.829 215.661 191.352 215.661H317.739C324.262 215.661 329.551 220.954 329.551 227.483V267.678C329.551 274.207 324.262 279.5 317.739 279.5H191.352C184.829 279.5 179.54 274.207 179.54 267.678V227.483Z" fill="black"/>
<path d="M783.715 227.483C783.715 220.954 789.003 215.661 795.527 215.661H859.901C866.425 215.661 871.713 220.954 871.713 227.483V267.678C871.713 274.207 866.425 279.5 859.901 279.5H795.527C789.003 279.5 783.715 274.207 783.715 267.678V227.483Z" fill="black"/>
<path fill-rule="evenodd" clip-rule="evenodd" d="M1274.01 65.2447V9.37984C1274.01 7.79538 1273.57 7.13949 1273.13 6.73744C1272.63 6.28064 1271.67 5.75 1269.58 5.75H1235.05C1232.96 5.75 1231.99 6.28064 1231.49 6.73744C1231.06 7.13949 1230.61 7.79537 1230.61 9.37984V198.816C1230.61 200.4 1231.06 201.056 1231.49 201.458C1231.99 201.915 1232.96 202.446 1235.05 202.446H1269.58C1271.67 202.446 1272.63 201.915 1273.13 201.458C1273.57 201.056 1274.01 200.4 1274.01 198.816V102.104H1289.35V199.112C1289.35 200.696 1289.79 201.352 1290.23 201.754C1290.73 202.211 1291.69 202.742 1293.79 202.742H1328.32C1330.41 202.742 1331.37 202.211 1331.87 201.754C1332.31 201.352 1332.75 200.696 1332.75 199.112V115.938C1332.75 108.662 1330.81 104.142 1327.81 101.36C1324.74 98.5092 1319.64 96.62 1311.54 96.62H1306.29V84.3441H1311.54C1319.1 84.3441 1324.11 82.4816 1327.35 79.5087C1330.76 76.383 1332.75 71.8111 1332.75 65.0266V9.37984C1332.75 7.79543 1332.31 7.13951 1331.87 6.73744L1335.42 2.86797C1337.14 4.4466 1338 6.61723 1338 9.37984V65.0266C1338 72.9198 1335.63 79.037 1330.9 83.3782C1328.91 85.1994 1326.55 86.6204 1323.82 87.6412C1320.33 88.9431 1316.24 89.5941 1311.54 89.5941V91.37C1316.3 91.37 1320.42 91.9663 1323.89 93.159C1333.3 96.3861 1338 103.979 1338 115.938V199.112C1338 201.874 1337.14 204.045 1335.42 205.624C1334.35 206.605 1333.03 207.281 1331.46 207.653C1330.5 207.879 1329.46 207.992 1328.32 207.992H1293.79C1291.69 207.992 1289.9 207.609 1288.43 206.844C1287.79 206.51 1287.21 206.104 1286.68 205.624C1285.46 204.504 1284.68 203.086 1284.32 201.37C1284.18 200.667 1284.1 199.914 1284.1 199.112V107.354H1279.26V198.816C1279.26 198.915 1279.26 199.014 1279.26 199.112C1279.24 199.892 1279.15 200.623 1278.99 201.306C1278.62 202.918 1277.85 204.259 1276.68 205.328C1275.99 205.96 1275.2 206.465 1274.3 206.844C1272.96 207.412 1271.39 207.696 1269.58 207.696H1235.05C1234.13 207.696 1233.28 207.623 1232.49 207.478C1230.66 207.145 1229.15 206.428 1227.95 205.328C1226.23 203.749 1225.36 201.578 1225.36 198.816V9.37984C1225.36 6.61723 1226.23 4.4466 1227.95 2.86797C1229.67 1.28933 1232.03 0.5 1235.05 0.5H1269.58C1272.59 0.5 1274.96 1.28933 1276.68 2.86797C1277.87 3.96151 1278.65 5.33911 1279.02 7.00079C1279.18 7.7379 1279.26 8.53093 1279.26 9.37984V59.9947H1284.1V9.37984C1284.1 8.53093 1284.18 7.7379 1284.35 7.00079C1284.71 5.33911 1285.49 3.96151 1286.68 2.86797C1288.41 1.28933 1290.77 0.5 1293.79 0.5H1328.32C1331.33 0.5 1333.7 1.28933 1335.42 2.86797L1331.87 6.73744C1331.37 6.28063 1330.41 5.75 1328.32 5.75H1293.79C1291.69 5.75 1290.73 6.28064 1290.23 6.73744C1289.79 7.13949 1289.35 7.79537 1289.35 9.37984V65.2447H1274.01ZM943.035 160.565V9.39252C943.035 6.62596 942.148 4.45224 940.373 2.87135C938.598 1.29046 936.158 0.5 933.052 0.5H897.444C894.338 0.5 891.897 1.29046 890.123 2.87135C888.348 4.45224 887.46 6.62596 887.46 9.39252V199.099C887.46 201.866 888.348 204.039 890.123 205.62C891.897 207.201 894.338 207.992 897.444 207.992H968.993C972.099 207.992 974.539 207.201 976.314 205.62C978.089 204.039 978.976 201.866 978.976 199.099V169.457C978.976 166.691 978.089 164.517 976.314 162.936C974.539 161.355 972.099 160.565 968.993 160.565H943.035ZM1232.96 212.842C1228.52 214.513 1225.36 218.796 1225.36 223.817V265.433C1225.36 271.907 1230.62 277.155 1237.1 277.155H1326.27C1332.75 277.155 1338 271.907 1338 265.433V223.817C1338 219.012 1335.11 214.882 1330.97 213.072C1330.13 212.707 1329.24 212.436 1328.32 212.273C1327.65 212.156 1326.97 212.094 1326.27 212.094H1237.1C1236.4 212.094 1235.71 212.156 1235.05 212.273C1234.33 212.4 1233.63 212.592 1232.96 212.842ZM937.786 165.815V9.39252C937.786 7.8536 937.352 7.21008 936.882 6.79201C936.333 6.3026 935.275 5.75 933.052 5.75H897.444C895.221 5.75 894.163 6.3026 893.614 6.79201C893.144 7.21008 892.709 7.85361 892.709 9.39252V199.099C892.709 200.638 893.144 201.282 893.614 201.7C894.163 202.189 895.221 202.742 897.444 202.742H968.993C971.215 202.742 972.273 202.189 972.823 201.7C973.292 201.282 973.727 200.638 973.727 199.099V169.457C973.727 167.918 973.292 167.275 972.823 166.857C972.273 166.368 971.215 165.815 968.993 165.815H937.786ZM1326.27 217.344H1237.1C1233.51 217.344 1230.61 220.248 1230.61 223.817V265.433C1230.61 269.002 1233.51 271.905 1237.1 271.905H1326.27C1329.85 271.905 1332.75 269.002 1332.75 265.433V223.817C1332.75 220.248 1329.85 217.344 1326.27 217.344ZM967.243 219.103H899.193C895.607 219.103 892.709 222.006 892.709 225.576V267.777C892.709 271.347 895.607 274.25 899.193 274.25H967.243C970.829 274.25 973.727 271.347 973.727 267.777V225.576C973.727 222.006 970.829 219.103 967.243 219.103ZM993.031 7.55492C991.995 8.49133 991.265 9.86461 991.265 12.3474V219.282C991.265 228.875 993.027 236.81 996.329 243.27C1000.05 249.963 1004.93 255.557 1011.01 260.095C1017.08 264.625 1024.43 268.042 1033.18 270.267C1042.34 272.523 1052.11 273.664 1062.5 273.664C1085.46 273.664 1102.76 269.043 1114.97 260.414C1126.96 251.88 1133.29 238.54 1133.29 219.282V12.3474C1133.29 9.8646 1132.56 8.49132 1131.53 7.55492C1130.42 6.55518 1128.61 5.75 1125.43 5.75H1078.67C1075.49 5.75 1073.68 6.55519 1072.57 7.55492C1071.54 8.49132 1070.81 9.8646 1070.81 12.3474V210.989C1070.81 212.893 1070.5 215.259 1069.08 217.27C1067.43 219.618 1064.93 220.583 1062.5 220.583C1060.18 220.583 1057.61 219.808 1055.79 217.539C1054.13 215.487 1053.75 213.003 1053.75 210.989V12.3474C1053.75 9.86462 1053.02 8.49133 1051.99 7.55492C1050.88 6.55519 1049.07 5.75 1045.89 5.75H999.127C995.949 5.75 994.137 6.55519 993.031 7.55492ZM1031.9 275.36C1022.58 272.99 1014.57 269.304 1007.87 264.302C1001.17 259.3 995.776 253.113 991.697 245.741C987.91 238.369 986.016 229.55 986.016 219.282V12.3474C986.016 8.66152 987.181 5.76551 989.512 3.6593C991.843 1.55309 995.048 0.5 999.127 0.5H1045.89C1049.97 0.5 1053.17 1.55309 1055.5 3.6593C1057.84 5.76551 1059 8.66152 1059 12.3474V210.989C1059 213.885 1060.17 215.333 1062.5 215.333C1064.54 215.333 1065.56 213.885 1065.56 210.989V12.3474C1065.56 8.66152 1066.72 5.76551 1069.05 3.6593C1071.38 1.55309 1074.59 0.5 1078.67 0.5H1125.43C1129.51 0.5 1132.71 1.55309 1135.05 3.6593C1137.38 5.76551 1138.54 8.66152 1138.54 12.3474V219.282C1138.54 239.817 1131.69 254.956 1118 264.697C1104.6 274.175 1086.1 278.914 1062.5 278.914C1051.72 278.914 1041.52 277.729 1031.9 275.36ZM1151.42 12.3567V265.299C1151.42 267.791 1152.15 269.169 1153.18 270.105C1154.28 271.102 1156.08 271.905 1159.24 271.905H1205.84C1209 271.905 1210.8 271.102 1211.9 270.105C1212.93 269.169 1213.66 267.791 1213.66 265.299V12.3567C1213.66 9.8641 1212.93 8.48634 1211.9 7.5502C1210.8 6.55308 1209 5.75 1205.84 5.75H1159.24C1156.08 5.75 1154.28 6.55308 1153.18 7.5502C1152.15 8.48634 1151.42 9.86409 1151.42 12.3567ZM887.46 225.576C887.46 219.101 892.713 213.853 899.193 213.853H967.243C973.723 213.853 978.976 219.101 978.976 225.576V267.777C978.976 274.251 973.723 279.5 967.243 279.5H899.193C892.713 279.5 887.46 274.251 887.46 267.777V225.576ZM1146.17 12.3567V265.299C1146.17 268.987 1147.33 271.886 1149.65 273.994C1151.98 276.102 1155.17 277.155 1159.24 277.155H1205.84C1209.91 277.155 1213.1 276.102 1215.43 273.994C1217.75 271.886 1218.91 268.987 1218.91 265.299V12.3567C1218.91 8.66794 1217.75 5.76963 1215.43 3.66177C1213.1 1.55392 1209.91 0.5 1205.84 0.5H1159.24C1155.17 0.5 1151.98 1.55392 1149.65 3.66177C1147.33 5.76963 1146.17 8.66794 1146.17 12.3567Z" fill="black"/>
</svg>
