<svg width="15" height="15" viewBox="0 0 15 15" fill="none" xmlns="http://www.w3.org/2000/svg">
<path d="M0.783975 1.51754C-0.0998668 2.40138 -0.0998668 3.83436 0.783975 4.71819L3.58535 7.51956L0.783975 10.3209C-0.0998668 11.2048 -0.0998668 12.6377 0.783975 13.5216L1.51854 14.2561C2.40234 15.14 3.83532 15.14 4.71916 14.2561L7.52054 11.4548L10.3219 14.2561C11.2058 15.14 12.6387 15.14 13.5226 14.2561L14.2571 13.5216C15.1409 12.6378 15.1409 11.2048 14.2571 10.3209L11.4557 7.51956L14.2571 4.71819C15.1409 3.83436 15.1409 2.40137 14.2571 1.51754L13.5226 0.782995C12.6387 -0.100842 11.2058 -0.100842 10.3219 0.782995L7.52054 3.58437L4.71916 0.782995C3.83532 -0.100839 2.40234 -0.100839 1.5185 0.782995L0.783975 1.51754Z" fill="#535353"/>
</svg>
